<?xml version="1.0"?>
<svg version="1.1" xmlns="http://www.w3.org/2000/svg" width="186" height="125" style="border: dashed 2px #aaa"><path fill="#" d="M17.7275390625,53.95849609375q-0.095703125-1.26806640625,0.21533203125-2.392578125t1.17236328125-1.8662109375t2.9189453125-0.74169921875q0.478515625,0,1.17236328125,0.095703125t1.3876953125,0.31103515625t1.12451171875,0.59814453125t0.4306640625,1.052734375q0,1.7705078125,0.11962890625,4.66552734375t0.31103515625,6.029296875t0.35888671875,6.125t0.31103515625,4.85693359375q3.732421875-0.19140625,7.5126953125-0.19140625t7.46484375-0.19140625l6.603515625-0.19140625l0-4.7373046875q0-7.943359375-0.31103515625-15.91064453125t-1.07666015625-15.91064453125q0-0.57421875,0.478515625-0.93310546875t1.12451171875-0.55029296875t1.33984375-0.2392578125t1.07666015625-0.0478515625q1.1005859375,0,2.36865234375,0.3349609375t1.45947265625,1.435546875l0.287109375,2.0576171875q1.1962890625,8.61328125,1.626953125,17.03515625t0.6220703125,16.84375q0.57421875,0.095703125,1.22021484375,0.31103515625t1.31591796875,0.40673828125q0.478515625,0.19140625,1.36376953125,0.57421875t0.88525390625,1.1962890625q0,0.765625-0.669921875,1.1962890625t-1.50732421875,0.64599609375t-1.626953125,0.26318359375t-0.98095703125,0.0478515625q0.095703125,3.541015625,0.095703125,7.05810546875l0,7.05810546875l0,15.4560546875l0,8.61328125q0,0.57421875-0.55029296875,1.02880859375t-1.31591796875,0.74169921875t-1.60302734375,0.3828125t-1.50732421875,0.095703125t-1.5791015625-0.095703125t-1.626953125-0.3828125t-1.26806640625-0.7177734375t-0.55029296875-1.052734375l0-2.0576171875q0.19140625-9.091796875,0.4306640625-18.01611328125t0.478515625-17.92041015625q-5.2158203125,0.19140625-10.59912109375,0.2392578125t-10.69482421875,0.2392578125q0.57421875,6.7470703125,1.31591796875,13.47021484375t1.55517578125,13.47021484375q0,0.57421875-0.55029296875,1.02880859375t-1.2919921875,0.74169921875t-1.5791015625,0.3828125t-1.50732421875,0.095703125q-1.3876953125,0-3.03857421875-0.478515625t-1.84228515625-1.7705078125q-0.57421875-5.072265625-1.07666015625-11.197265625t-0.88525390625-12.51318359375t-0.59814453125-12.51318359375t-0.21533203125-11.1015625q0-1.1962890625-0.095703125-2.46435546875z "/><path fill="#" d="M96.0821875,81.59423828125q0-8.314453125,0.459228515625-16.435546875t1.135986328125-16.435546875q0.193359375-2.17529296875,0.24169921875-4.20556640625t0.459228515625-3.552978515625t1.4501953125-2.4169921875t3.214599609375-0.894287109375q1.40185546875,0,2.924560546875,0.4833984375t1.522705078125,2.27197265625q0,6.71923828125-0.555908203125,13.220947265625t-0.749267578125,12.930908203125q5.26904296875-5.94580078125,11.26318359375-11.093994140625t12.71337890625-10.175537109375q0.966796875-0.6767578125,2.46533203125-0.72509765625q0.4833984375,0,0.845947265625,0.04833984375t0.749267578125,0.14501953125q0.4833984375,0.193359375,0.990966796875,0.459228515625t0.507568359375,0.749267578125q0,0.38671875-0.43505859375,0.6767578125q-5.02734375,4.060546875-9.933837890625,8.26611328125t-9.353759765625,8.9912109375q0.580078125,1.11181640625,0.990966796875,2.07861328125t0.894287109375,2.07861328125q4.060546875,9.61962890625,6.936767578125,19.698486328125t6.114990234375,19.988525390625q0.2900390625,1.11181640625,0.845947265625,2.296142578125t1.039306640625,2.36865234375t0.845947265625,2.2236328125t0.362548828125,1.716064453125q0,0.8701171875-0.555908203125,1.377685546875t-1.281005859375,0.797607421875t-1.571044921875,0.38671875t-1.571044921875,0.0966796875q-1.69189453125,0-3.021240234375-0.4833984375t-2.102783203125-2.17529296875q-3.5771484375-11.408203125-6.888427734375-22.81640625t-6.695068359375-23.009765625q-1.11181640625,1.11181640625-2.2236328125,2.779541015625t-2.0302734375,3.069580078125q0,7.2509765625,0.33837890625,14.4052734375t1.16015625,14.4052734375q0.193359375,2.07861328125,0.652587890625,4.1572265625t0.459228515625,4.25390625q0,1.59521484375-1.6435546875,2.2236328125t-3.62548828125,0.62841796875q-2.17529296875,0-3.262939453125-0.43505859375t-1.546875-1.135986328125t-0.555908203125-1.546875t-0.2900390625-1.619384765625q-1.11181640625-7.6376953125-1.40185546875-15.106201171875t-0.2900390625-15.009521484375z"/></svg>
